<svg width="91" height="26" fill="none" xmlns="http://www.w3.org/2000/svg"><path d="M23.639 0h4.182v25.846H23.64V0Zm18.729 17.655c0 4.005-3.273 4.369-4.364 4.369-2.546 0-2.91-2.366-2.91-3.64V8.372h-4.182V18.2c0 2.367.728 4.55 2.182 5.825 1.273 1.274 2.91 1.82 4.91 1.82 1.455 0 3.273-.364 4.364-1.456v1.456h4.183V8.373h-4.183v9.282ZM54.735 2.002h-4.183v6.37h-3.091v4.005h3.091v13.47h4.183v-13.47h3.091V8.373h-3.091v-6.37ZM70.92 20.568c-.909.728-2.182 1.274-3.455 1.274-2.91 0-4.91-2.184-4.91-5.097 0-2.912 2-4.914 4.91-4.914 1.273 0 2.546.364 3.455 1.274l.546.546 2.91-2.73-.728-.546a9.319 9.319 0 0 0-6.183-2.366c-5.092 0-8.91 3.822-8.91 8.918 0 5.097 3.819 8.92 8.91 8.92 2.364 0 4.546-.91 6.183-2.367l.727-.546-2.91-2.912-.545.546ZM89.104 9.829c-1.273-1.274-2.546-1.82-4.546-1.82-1.455 0-2.91.364-4 1.456V0h-4.183v25.846h4.183V16.2c0-4.004 2.727-4.368 3.818-4.368 2.546 0 2.364 2.366 2.364 3.64v10.193h4.183v-10.01c0-2.367-.546-4.551-1.819-5.825Z" fill="#fff"/><path d="M67.285 19.84a2.911 2.911 0 0 0 2.91-2.913 2.911 2.911 0 0 0-2.91-2.912 2.91 2.91 0 0 0-2.91 2.912 2.91 2.91 0 0 0 2.91 2.913Zm-49.465-.364c-1.454 1.456-3.636 2.366-6 2.366-4.546 0-7.82-3.64-7.82-8.555 0-4.914 3.274-8.555 8.002-8.555 2.182 0 4.364.91 6 2.549l.546.546 2.728-2.73-.546-.547C18.366 2.184 15.275.91 12.002.91 5.092.728 0 6.19 0 13.287c0 7.099 5.092 12.56 11.82 12.56 3.273 0 6.546-1.275 8.729-3.641l.545-.546-2.728-2.73-.545.546Z" fill="#fff"/></svg>